<svg width="1024" height="1024" viewBox="0 0 1024 1024" fill="none" xmlns="http://www.w3.org/2000/svg">
<path d="M208.423 840.447C189.112 838.976 173.249 826.561 167.636 808.528C165.89 802.915 165.742 798.756 165.742 755.211C165.742 703.493 165.829 702.58 171.814 692.034C178.068 681.013 191.597 671.684 204.355 669.594C208.042 668.991 323.28 668.634 512.742 668.639C843.949 668.649 821.729 668.25 833.114 674.395C843.704 680.111 853.195 692.765 855.633 704.418C857.071 711.289 857.113 800.296 855.682 806.504C852.766 819.15 843.846 830.352 832.052 836.18C825.225 839.553 823.224 840.069 815.756 840.383C799.679 841.057 217.243 841.119 208.423 840.447ZM822.855 818.407C825.392 816.916 828.88 814.086 830.607 812.12C836.94 804.906 836.825 806.048 836.519 753.601L836.242 705.959L833.213 701.039C829.501 695.011 822.49 690.122 815.482 688.674C811.774 687.908 721.945 687.669 508.242 687.855L206.242 688.119L201.514 690.447C195.055 693.629 188.142 701.532 186.252 707.897C184.041 715.342 184.024 793.839 186.232 801.274C188.889 810.221 195.493 817.23 204.242 820.387C206.373 821.156 295.667 821.419 512.742 821.294L818.242 821.119L822.855 818.407Z" fill="black"/>
<path d="M207.646 800.24C202.305 798.084 202.289 797.95 202.289 755.074C202.289 732.208 202.695 714.294 203.246 712.844C205.4 707.179 204.768 707.231 270.74 707.231L270.539 801.168C237.127 801.133 208.825 800.715 207.646 800.24Z" fill="#3AC51E"/>
<path d="M590.539 382.486V167.935L668.289 168.338C711.052 168.56 747.389 169.013 749.039 169.345C781.338 175.844 797.002 183.465 813.69 200.799C829.811 217.544 838.879 236.816 843.235 263.591C844.276 269.992 844.284 332.997 843.245 339.537C839.108 365.555 828.918 387.065 812.89 403.607C797.461 419.531 775.451 430.709 749.623 435.738C744.227 436.788 731.874 437.365 706.79 437.737L671.539 438.261V517.649V597.037H631.039H590.539V382.486ZM734.321 359.651C746.589 356.515 753.867 350.773 758.75 340.376C762.595 332.192 763.637 321.798 763.148 296.537C762.655 271.076 761.64 266.216 754.864 256.86C745.738 244.261 733.685 241.09 694.789 241.056L671.539 241.037V301.648V362.26L699.789 361.759C721.11 361.38 729.58 360.863 734.321 359.651Z" fill="#C51E1E"/>
<path d="M374.991 335.081L417.492 335.352L459.992 335.624L459.992 252.374L459.991 169.124H498.491H536.991V383.624V598.124H498.491H459.991V503.124V408.124H417.491H374.991V335.081Z" fill="#C51E1E"/>
<path d="M293.056 428.264C293.196 334.214 293.007 257.264 292.635 257.264C291.52 257.264 272.702 269.402 238.039 292.481L205.277 314.294L205.539 274.077L205.8 233.86L235.8 212.581C252.3 200.878 272.799 186.569 281.353 180.783L296.906 170.264H336.603H376.3V253.243V336.222V409.264V504.264V599.264L334.55 599.264H292.8L293.056 428.264Z" fill="#3DB9F8"/>
</svg>
